#!OML:ASF E:\Steps\Project 1\Capture day 1\Session 2\Subject.ASF
:FULLY-SPECIFIED
:DEGREES
711
root 9.45671 20.3103 -13.8639 -161.091 4.76704 178.577
lowerback -19.596 1.16073 -2.55867
upperback 2.4513 2.00905 1.5737
thorax 13.6965 0.658289 3.86296
lowerneck -1.16285 -0.834953 -0.651242
upperneck 20.4632 -2.92966 0.669102
head 6.41492 -2.04401 0.082487
rclavicle 2.5842e-015 -2.54444e-014
rhumerus -24.8773 -6.65078 -83.4399
rradius 43.3195
rwrist -4.42665
rhand -6.3119 -56.3658
rfingers 7.12502
rthumb 19.5325 -85.4046
lclavicle 2.5842e-015 -2.54444e-014
lhumerus -37.1558 11.0876 75.4003
lradius 17.2833
lwrist -14.5084
lhand -17.928 -14.4034
lfingers 7.12502
lthumb 8.33983 15.412
rfemur -13.6795 6.20778 22.8814
rtibia 14.0662
rfoot -25.8562 -6.51164
rtoes -40.9342
lfemur -69.3396 -0.928046 -19.304
ltibia 56.6055
lfoot -5.50381 1.77046
ltoes -29.1614
712
root 9.44173 20.3011 -13.941 -160.884 4.71324 178.44
lowerback -19.7393 1.06851 -2.70318
upperback 2.39446 1.9314 1.52317
thorax 13.7184 0.614005 3.86908
lowerneck -1.49941 -0.871087 -0.638847
upperneck 20.5671 -2.9898 0.785051
head 6.50877 -2.05646 0.108555
rclavicle -4.57205e-015 -2.62396e-014
rhumerus -24.8695 -6.4618 -83.689
rradius 43.358
rwrist -5.22477
rhand -7.71255 -55.0896
rfingers 7.12502
rthumb 18.1854 -84.2595
lclavicle -4.57205e-015 -2.62396e-014
lhumerus -36.7691 10.9419 75.3167
lradius 16.675
lwrist -14.5604
lhand -17.9092 -14.2017
lfingers 7.12502
lthumb 8.358 15.613
rfemur -13.4562 6.42354 22.6777
rtibia 13.8136
rfoot -25.8884 -6.73919
rtoes -40.8453
lfemur -69.5672 -1.08497 -19.6451
ltibia 56.9981
lfoot -5.43531 1.53881
ltoes -29.6758
713
root 9.42387 20.295 -14.0128 -160.619 4.6106 178.366
lowerback -19.8874 0.928441 -2.74929
upperback 2.14509 1.7673 1.51815
thorax 13.5265 0.548259 3.83806
lowerneck -0.943758 -0.783868 -0.745091
upperneck 20.4111 -2.90007 0.817196
head 6.36338 -2.03527 0.149759
rclavicle 9.93923e-016 2.8625e-014
rhumerus -25.3244 -6.22464 -83.8376
rradius 43.6446
rwrist -5.34942
rhand -5.39874 -58.0019
rfingers 7.12502
rthumb 20.4103 -86.9493
lclavicle 9.93923e-016 2.8625e-014
lhumerus -36.85 10.9683 75.0646
lradius 16.156
lwrist -14.6705
lhand -18.1119 -14.4337
lfingers 7.12502
lthumb 8.16231 15.3887
rfemur -13.3217 6.36872 22.5251
rtibia 13.5878
rfoot -25.8979 -6.67294
rtoes -40.3366
lfemur -70.012 -1.36992 -19.7859
ltibia 57.5629
lfoot -5.36688 1.39411
ltoes -30.0609
714
root 9.40652 20.2894 -14.0802 -160.462 4.49347 178.341
lowerback -19.7949 0.875424 -2.72883
upperback 2.1347 1.69343 1.47544
thorax 13.4681 0.519486 3.75117
lowerneck -1.69451 -2.90527 -0.534918
upperneck 20.9392 -2.34123 -0.025998
head 6.64661 -0.555382 0.00952161
rclavicle 3.97569e-015 -4.92986e-014
rhumerus -25.2077 -6.25545 -84.0366
rradius 43.7138
rwrist -5.35877
rhand -4.87105 -57.9335
rfingers 7.12502
rthumb 20.9173 -86.8257
lclavicle 3.97569e-015 -4.92986e-014
lhumerus -36.4309 11.0493 74.8885
lradius 15.9101
lwrist -14.9369
lhand -18.5114 -14.5601
lfingers 7.12502
lthumb 7.77672 15.2769
rfemur -13.1234 6.20734 22.438
rtibia 13.4331
rfoot -26.0474 -6.69058
rtoes -40.4982
lfemur -70.3741 -1.71968 -19.756
ltibia 58.1984
lfoot -5.58945 1.3939
ltoes -29.9423
715
root 9.39249 20.2819 -14.1468 -160.419 4.36438 178.268
lowerback -19.5802 0.817262 -2.82246
upperback 2.12652 1.63551 1.43799
thorax 13.336 0.490885 3.7359
lowerneck -1.25314 -2.87927 -0.824969
upperneck 20.272 -2.43565 0.456783
head 6.36701 -0.612803 0.209109
rclavicle -1.11319e-014 -3.10104e-014
rhumerus -25.1883 -6.23101 -84.1827
rradius 43.7413
rwrist -5.52972
rhand -5.91242 -56.7753
rfingers 7.12502
rthumb 19.9165 -85.7747
lclavicle -1.11319e-014 -3.10104e-014
lhumerus -36.1413 11.0221 74.7676
lradius 15.8058
lwrist -15.0792
lhand -18.7411 -14.3363
lfingers 7.12502
lthumb 7.55502 15.5087
rfemur -12.7978 6.27107 22.332
rtibia 13.2575
rfoot -26.2204 -7.12048
rtoes -41.4113
lfemur -70.6105 -2.07016 -19.7705
ltibia 58.824
lfoot -5.88897 1.39369
ltoes -30.8
716
root 9.38127 20.2781 -14.2118 -160.288 4.24091 178.152
lowerback -19.5383 0.751902 -2.99701
upperback 2.20055 1.59564 1.35338
thorax 13.3993 0.458376 3.7284
lowerneck -1.1801 -2.89748 -0.774189
upperneck 19.7204 -2.57747 0.655254
head 6.18116 -0.695254 0.253713
rclavicle 3.97569e-015 7.95139e-015
rhumerus -25.1401 -6.20712 -84.3996
rradius 44.0738
rwrist -5.90816
rhand -4.94187 -58.6189
rfingers 7.12502
rthumb 20.8493 -87.5186
lclavicle 3.97569e-015 7.95139e-015
lhumerus -35.6132 11.0579 74.5675
lradius 15.687
lwrist -15.251
lhand -18.4273 -13.881
lfingers 7.12502
lthumb 7.85794 15.9529
rfemur -12.5865 6.55943 22.1689
rtibia 13.1081
rfoot -26.2183 -7.38788
rtoes -40.3407
lfemur -70.9042 -2.36302 -19.8655
ltibia 59.3978
lfoot -6.21091 1.35903
ltoes -32.6673
